<?xml version="1.0" ?><svg data-name="Layer 1" id="Layer_1" viewBox="0 0 272 272" xmlns="http://www.w3.org/2000/svg"><defs><style>.cls-1{fill:#e2e3e5;}.cls-2{fill:#d7d8da;}</style></defs><title/><path class="cls-1" d="M86.54,125.22a22.88,22.88,0,0,0,1.46-8C88,103.28,75.46,92,60,92s-28,11.28-28,25.2a22.9,22.9,0,0,0,.29,3.6H32c-13.25,0-24,9.67-24,21.6H8C8,154.33,18.75,164,32,164H72c13.25,0,24-9.67,24-21.6h0A20.91,20.91,0,0,0,86.54,125.22Z"/><path class="cls-2" d="M239.19,134a47.26,47.26,0,0,0,.81-8.63C240,98.12,216.72,76,188,76c-22.36,0-41.41,13.41-48.76,32.22a30.6,30.6,0,0,0-15.24-4c-15.46,0-28,11.06-28,24.71a22.05,22.05,0,0,0,1.52,8C87,142.52,80,152.65,80,164.24h0C80,181.78,96.12,196,116,196H228c19.88,0,36-14.22,36-31.76h0C264,150.14,253.59,138.2,239.19,134Z"/></svg>